<svg id="Capa_1" data-name="Capa 1" xmlns="http://www.w3.org/2000/svg" viewBox="0 0 150 150"><defs><style>.cls-1{font-size:24px;font-family:OpenSans-Semibold, Open Sans;font-weight:600;}.cls-2{fill:#c6d5db;}.cls-3{fill:#e1e8ed;}.cls-4{fill:#edf1f4;}</style></defs><text class="cls-1" transform="translate(50.67 119.9)">Link</text><path class="cls-2" d="M101.67,80.44V84H96.3V80.44a5.36,5.36,0,0,0-5.37-5.33V69.78A10.7,10.7,0,0,1,101.67,80.44Z"/><path class="cls-3" d="M80.33,80.44V84H85.7V80.44a5.36,5.36,0,0,1,5.37-5.33V69.78A10.7,10.7,0,0,0,80.33,80.44ZM92,73.33a6.69,6.69,0,0,0-.9.09v1.71a5.34,5.34,0,0,1,5.23,5.31V84h1.94V79.56A6.25,6.25,0,0,0,92,73.33Z"/><path class="cls-2" d="M101.67,23.56V20H96.3v3.56a5.36,5.36,0,0,1-5.37,5.33v5.33A10.7,10.7,0,0,0,101.67,23.56ZM90.18,73.33a6.54,6.54,0,0,1,.89.09v1.71a5.34,5.34,0,0,0-5.22,5.31V84H83.91V79.56a6.25,6.25,0,0,1,6.27-6.23Z"/><path class="cls-3" d="M80.33,23.56V20H85.7v3.56a5.36,5.36,0,0,0,5.37,5.33v5.33A10.7,10.7,0,0,1,80.33,23.56ZM92,30.67a6.69,6.69,0,0,1-.9-.09V28.87a5.34,5.34,0,0,0,5.23-5.31V20h1.94v4.44A6.25,6.25,0,0,1,92,30.67Z"/><path class="cls-2" d="M90.93,37.78v5.33a5.36,5.36,0,0,1,5.37,5.33v7.12a5.36,5.36,0,0,1-5.37,5.33v5.33a10.7,10.7,0,0,0,10.74-10.66V48.44A10.7,10.7,0,0,0,90.93,37.78Zm-.75-7.11a6.54,6.54,0,0,0,.89-.09V28.87a5.34,5.34,0,0,1-5.22-5.31V20H83.91v4.44A6.25,6.25,0,0,0,90.18,30.67Z"/><path class="cls-3" d="M92,41.33a6.69,6.69,0,0,0-.9.09v1.71a5.33,5.33,0,0,1,5.22,5.31v7.12a5.33,5.33,0,0,1-5.22,5.31v1.71a6.69,6.69,0,0,0,.9.09,6.24,6.24,0,0,0,6.26-6.23V47.56A6.24,6.24,0,0,0,92,41.33Z"/><path class="cls-3" d="M85.7,48.44a5.36,5.36,0,0,1,5.37-5.33V37.78A10.7,10.7,0,0,0,80.33,48.44v7.12A10.7,10.7,0,0,0,91.07,66.22V60.89a5.36,5.36,0,0,1-5.37-5.33Z"/><path class="cls-2" d="M58.93,53.78v5.33a5.36,5.36,0,0,1,5.37,5.33v7.12a5.36,5.36,0,0,1-5.37,5.33v5.33A10.7,10.7,0,0,0,69.67,71.56V64.44A10.7,10.7,0,0,0,58.93,53.78ZM90.18,41.33a6.25,6.25,0,0,0-6.27,6.23v8.88a6.25,6.25,0,0,0,6.27,6.23,6.54,6.54,0,0,0,.89-.09V60.87a5.34,5.34,0,0,1-5.22-5.31V48.44a5.34,5.34,0,0,1,5.22-5.31V41.42a6.39,6.39,0,0,0-.89-.09Z"/><path class="cls-3" d="M60,57.33a6.69,6.69,0,0,0-.9.09v1.71a5.33,5.33,0,0,1,5.22,5.31v7.12a5.33,5.33,0,0,1-5.22,5.31v1.71a6.69,6.69,0,0,0,.9.09,6.24,6.24,0,0,0,6.26-6.23V63.56A6.24,6.24,0,0,0,60,57.33Z"/><path class="cls-3" d="M53.7,64.44a5.36,5.36,0,0,1,5.37-5.33V53.78A10.7,10.7,0,0,0,48.33,64.44v7.12A10.7,10.7,0,0,0,59.07,82.22V76.89a5.36,5.36,0,0,1-5.37-5.33Z"/><path class="cls-2" d="M58.93,21.78v5.33a5.36,5.36,0,0,1,5.37,5.33v7.12a5.36,5.36,0,0,1-5.37,5.33v5.33A10.7,10.7,0,0,0,69.67,39.56V32.44A10.7,10.7,0,0,0,58.93,21.78Zm-.75,35.55a6.25,6.25,0,0,0-6.27,6.23v8.88a6.25,6.25,0,0,0,6.27,6.23,6.54,6.54,0,0,0,.89-.09V76.87a5.34,5.34,0,0,1-5.22-5.31V64.44a5.34,5.34,0,0,1,5.22-5.31V57.42A6.39,6.39,0,0,0,58.18,57.33Z"/><path class="cls-3" d="M53.7,32.44a5.36,5.36,0,0,1,5.37-5.33V21.78A10.7,10.7,0,0,0,48.33,32.44v7.12A10.7,10.7,0,0,0,59.07,50.22V44.89a5.36,5.36,0,0,1-5.37-5.33ZM60,25.33a6.69,6.69,0,0,0-.9.09v1.71a5.34,5.34,0,0,1,5.23,5.31v7.12a5.34,5.34,0,0,1-5.23,5.31v1.71a6.69,6.69,0,0,0,.9.09,6.24,6.24,0,0,0,6.26-6.23V31.56A6.24,6.24,0,0,0,60,25.33Z"/><path class="cls-2" d="M94.56,78.67a3.56,3.56,0,0,1-7.12,0V57.33a3.56,3.56,0,0,1,7.12,0ZM58.18,25.33a6.25,6.25,0,0,0-6.27,6.23v8.88a6.25,6.25,0,0,0,6.27,6.23,6.54,6.54,0,0,0,.89-.09V44.87a5.34,5.34,0,0,1-5.22-5.31V32.44a5.34,5.34,0,0,1,5.22-5.31V25.42A6.39,6.39,0,0,0,58.18,25.33Z"/><path class="cls-4" d="M87.44,57.33V78.67A3.56,3.56,0,0,0,91,82.22h0V53.78A3.56,3.56,0,0,0,87.44,57.33Z"/><path class="cls-2" d="M94.56,46.67a3.56,3.56,0,0,1-7.12,0V25.33a3.56,3.56,0,0,1,7.12,0Z"/><path class="cls-4" d="M87.44,25.33V46.67A3.56,3.56,0,0,0,91,50.22h0V21.78A3.56,3.56,0,0,0,87.44,25.33Z"/><path class="cls-2" d="M62.56,84H55.44V73.33a3.56,3.56,0,0,1,7.12,0Z"/><path class="cls-4" d="M59,69.78a3.56,3.56,0,0,0-3.56,3.55V84H59Z"/><path class="cls-2" d="M62.56,62.67a3.56,3.56,0,0,1-7.12,0V41.33a3.56,3.56,0,0,1,7.12,0Z"/><path class="cls-4" d="M55.44,41.33V62.67A3.56,3.56,0,0,0,59,66.22h0V37.78A3.56,3.56,0,0,0,55.44,41.33Z"/><path class="cls-2" d="M62.56,20H55.44V30.67a3.56,3.56,0,0,0,7.12,0Z"/><path class="cls-4" d="M59,34.22a3.56,3.56,0,0,1-3.56-3.55V20H59Z"/></svg>