<svg id="Capa_1" data-name="Capa 1" xmlns="http://www.w3.org/2000/svg" viewBox="0 0 150 150"><defs><style>.cls-1{font-size:24px;font-family:OpenSans-Semibold, Open Sans;font-weight:600;}.cls-2{fill:#94989b;}</style></defs><text class="cls-1" transform="translate(50.67 119.9)">Link</text><path class="cls-2" d="M78.89,58.93a2.74,2.74,0,0,1,.23,3.83L62.56,79.32a2.73,2.73,0,0,1-3.83-.23L45.91,66.27a2.73,2.73,0,0,1-.23-3.83L62.24,45.88a2.89,2.89,0,0,1,4.06,4.06l-13,13a2.74,2.74,0,0,0,.23,3.83l4.7,4.7a2.74,2.74,0,0,0,3.83.23l13-13A2.73,2.73,0,0,1,78.89,58.93Z"/><path class="cls-2" d="M104.09,33.73a2.74,2.74,0,0,1,.23,3.83L87.76,54.12a2.89,2.89,0,0,1-4.06-4.06l13-13a2.75,2.75,0,0,0-.23-3.84l-4.7-4.69a2.74,2.74,0,0,0-3.83-.23l-13,13a2.89,2.89,0,0,1-4.06-4.06L87.44,20.68a2.73,2.73,0,0,1,3.83.23Z"/><path class="cls-2" d="M86.7,38.3a2.73,2.73,0,0,1,.23,3.83l-19.8,19.8a2.89,2.89,0,0,1-4.06-4.06l19.8-19.8A2.73,2.73,0,0,1,86.7,38.3Z"/></svg>