<svg id="Capa_1" data-name="Capa 1" xmlns="http://www.w3.org/2000/svg" viewBox="0 0 150 150"><defs><style>.cls-1{font-size:9px;font-family:OpenSans-Semibold, Open Sans;font-weight:600;}.cls-2{fill:#ffcc4d;}.cls-3{fill:#231f20;}.cls-4{fill:#f5f8fa;}.cls-5{fill:#dd2e44;}</style></defs><text class="cls-1" transform="translate(9.33 71.94)">This content has been marked<tspan x="18.75" y="10.8">as NSFW from Reddit.</tspan></text><path class="cls-2" d="M59.65,44.25c-1.84,0-2.65-1.33-1.8-3l15.61-30c.84-1.64,2.23-1.64,3.08,0L92.15,41.28c.85,1.64,0,3-1.8,3Z"/><path class="cls-3" d="M72.77,19.91A2.06,2.06,0,0,1,75,17.81a2.1,2.1,0,0,1,2.23,2.1V31.85A2.1,2.1,0,0,1,75,34a2.07,2.07,0,0,1-2.23-2.11V19.91Zm-.19,18.3A2.42,2.42,0,1,1,75,40.63a2.42,2.42,0,0,1-2.42-2.42Z"/><path d="M92,122a17,17,0,1,1-17-17,17,17,0,0,1,17,17"/><path class="cls-4" d="M78.78,117.89a2,2,0,0,0,2,2.15,2.16,2.16,0,1,0-2-2.15Zm-.54,8.2a2.6,2.6,0,0,0,2.58,2.83,2.66,2.66,0,0,0,2.57-2.83,2.51,2.51,0,0,0-2.57-2.83,2.57,2.57,0,0,0-2.58,2.83Zm-4.41.28a5.42,5.42,0,0,1,3-4.89,4.79,4.79,0,0,1-2.15-4c0-3.31,2.75-5.43,6.12-5.43S87,114.09,87,117.43a4.81,4.81,0,0,1-2.18,4,5.28,5.28,0,0,1,3,4.89c0,3.94-3.2,6.46-7,6.46s-7-2.66-7-6.46Zm-7.31-10.13H64.85a1.82,1.82,0,0,1-1.92-1.95,1.89,1.89,0,0,1,1.92-2h4a1.84,1.84,0,0,1,1.89,2v16.1a2.12,2.12,0,1,1-4.24,0Z"/><path class="cls-5" d="M59,122a15.94,15.94,0,0,1,3.84-10.39l22.55,22.55A16,16,0,0,1,59,122Zm32,0a15.9,15.9,0,0,1-3.85,10.39L64.61,109.85A16,16,0,0,1,91,122ZM75,104a18,18,0,1,0,18,18A18,18,0,0,0,75,104Z"/></svg>