<svg id="Capa_1" data-name="Capa 1" xmlns="http://www.w3.org/2000/svg" viewBox="0 0 150 150"><defs><style>.cls-1{fill:#ff5a79;}.cls-2{fill:#333;}.cls-3{fill:#fff;}.cls-4{fill:#ffce31;}.cls-5{fill:#231f20;}.cls-6{font-size:9px;font-family:OpenSans-Semibold, Open Sans;font-weight:600;}</style></defs><circle class="cls-1" cx="75" cy="123.13" r="16.88"/><circle class="cls-2" cx="75" cy="123.13" r="13.5"/><path class="cls-3" d="M66.07,120.34v-2A13,13,0,0,0,68,118.2a2.64,2.64,0,0,0,1.41-.77,2.4,2.4,0,0,0,.56-1.05,2.26,2.26,0,0,0,.12-.58h2.4v14.66h-3V120.34Z"/><path class="cls-3" d="M77.47,121.05a1.85,1.85,0,0,0,3.21-1.31,1.87,1.87,0,0,0-.48-1.36,1.84,1.84,0,0,0-1.36-.49,1.9,1.9,0,0,0-1.37.49,1.87,1.87,0,0,0-.49,1.36A1.83,1.83,0,0,0,77.47,121.05Zm-.18,6.67a2.3,2.3,0,0,0,3.1,0A2.34,2.34,0,0,0,81,126a2.31,2.31,0,0,0-.58-1.7,2.33,2.33,0,0,0-3.08,0,2.34,2.34,0,0,0-.57,1.7A2.38,2.38,0,0,0,77.29,127.72Zm-3-3.72a3.59,3.59,0,0,1,1.64-1.51A3.41,3.41,0,0,1,74.54,121a4.33,4.33,0,0,1-.32-1.54,3.59,3.59,0,0,1,1.21-2.73,5.74,5.74,0,0,1,6.81,0,3.62,3.62,0,0,1,1.2,2.73,4.31,4.31,0,0,1-.31,1.54,3,3,0,0,1-1.38,1.43A4.07,4.07,0,0,1,83.38,124a4.53,4.53,0,0,1,.55,2.24,4.2,4.2,0,0,1-1.37,3.15,5.38,5.38,0,0,1-3.83,1.29A5,5,0,0,1,75,129.39a4.37,4.37,0,0,1-1.26-3.15A4.53,4.53,0,0,1,74.29,124Z"/><rect class="cls-1" x="73.31" y="106.71" width="3.38" height="32.83" transform="translate(-65.1 89.1) rotate(-45)"/><path class="cls-4" d="M60.32,43.75c-1.86,0-2.71-1.34-1.87-3l15-29.54c.83-1.64,2.19-1.64,3,0l15,29.54c.84,1.64,0,3-1.87,3Z"/><path class="cls-5" d="M72.64,22.14l1.55,10.39a.82.82,0,0,0,1.63,0l1.54-10.39C77.65,18.09,72.35,18.09,72.64,22.14Z"/><ellipse class="cls-5" cx="75" cy="36.78" rx="2.37" ry="2.37"/><text class="cls-6" transform="translate(9.33 71.94)">This content has been marked<tspan x="18.75" y="10.8">as NSFW from Reddit.</tspan></text></svg>